<svg height="678.4000000000001" version="1.1" width="1148.4" xmlns="http://www.w3.org/2000/svg" style="overflow: hidden; position: relative; left: -0.800001px; top: -0.200012px;"><desc style="-webkit-tap-highlight-color: rgba(0, 0, 0, 0);">Created with Raphaël 2.0.1</desc><defs style="-webkit-tap-highlight-color: rgba(0, 0, 0, 0);"></defs><rect x="0" y="0" width="1148.4" height="678.4000000000001" r="0" rx="0" ry="0" fill="none" stroke="none" style="-webkit-tap-highlight-color: rgba(0, 0, 0, 0);"></rect><path fill="none" stroke="#000000" d="M1270,30Q1350,385,142,-194" stroke-width="5" opacity="1" style="-webkit-tap-highlight-color: rgba(0, 0, 0, 0); opacity: 1;"></path><path fill="none" stroke="#000000" d="M1270,30Q918,727,142,-194" stroke-width="5" opacity="1" style="-webkit-tap-highlight-color: rgba(0, 0, 0, 0); opacity: 1;"></path><path fill="none" stroke="#000000" d="M1270,30Q320,495,142,-194" stroke-width="5" opacity="1" style="-webkit-tap-highlight-color: rgba(0, 0, 0, 0); opacity: 1;"></path><path fill="none" stroke="#000000" d="M1270,30Q378,-184,142,-194" stroke-width="5" opacity="1" style="-webkit-tap-highlight-color: rgba(0, 0, 0, 0); opacity: 1;"></path><path fill="none" stroke="#000000" d="M1270,30Q1043,700,142,-194" stroke-width="5" opacity="1" style="-webkit-tap-highlight-color: rgba(0, 0, 0, 0); opacity: 1;"></path><path fill="none" stroke="#000000" d="M1270,30Q1349,-101,142,-194" stroke-width="5" opacity="1" style="-webkit-tap-highlight-color: rgba(0, 0, 0, 0); opacity: 1;"></path><path fill="none" stroke="#000000" d="M1270,30Q959,517,142,-194" stroke-width="5" opacity="1" style="-webkit-tap-highlight-color: rgba(0, 0, 0, 0); opacity: 1;"></path><path fill="none" stroke="#000000" d="M1270,30Q501,376,142,-194" stroke-width="5" opacity="1" style="-webkit-tap-highlight-color: rgba(0, 0, 0, 0); opacity: 1;"></path><path fill="none" stroke="#000000" d="M1270,30Q869,-79,142,-194" stroke-width="5" opacity="1" style="-webkit-tap-highlight-color: rgba(0, 0, 0, 0); opacity: 1;"></path><path fill="none" stroke="#000000" d="M1270,30Q-168,438,142,-194" stroke-width="5" opacity="1" style="-webkit-tap-highlight-color: rgba(0, 0, 0, 0); opacity: 1;"></path><path fill="none" stroke="#000000" d="M1270,30Q424,348,142,-194" stroke-width="5" opacity="1" style="-webkit-tap-highlight-color: rgba(0, 0, 0, 0); opacity: 1;"></path><path fill="none" stroke="#000000" d="M1270,30Q1108,408,142,-194" stroke-width="5" opacity="1" style="-webkit-tap-highlight-color: rgba(0, 0, 0, 0); opacity: 1;"></path><path fill="none" stroke="#000000" d="M1270,30Q63,653,142,-194" stroke-width="5" opacity="1" style="-webkit-tap-highlight-color: rgba(0, 0, 0, 0); opacity: 1;"></path><path fill="none" stroke="#000000" d="M1270,30Q891,212,142,-194" stroke-width="5" opacity="1" style="-webkit-tap-highlight-color: rgba(0, 0, 0, 0); opacity: 1;"></path><path fill="none" stroke="#000000" d="M1270,30Q1225,815,142,-194" stroke-width="5" opacity="1" style="-webkit-tap-highlight-color: rgba(0, 0, 0, 0); opacity: 1;"></path><path fill="none" stroke="#000000" d="M1270,30Q-213,863,142,-194" stroke-width="5" opacity="1" style="-webkit-tap-highlight-color: rgba(0, 0, 0, 0); opacity: 1;"></path><path fill="none" stroke="#000000" d="M1270,30Q332,213,142,-194" stroke-width="5" opacity="1" style="-webkit-tap-highlight-color: rgba(0, 0, 0, 0); opacity: 1;"></path><path fill="none" stroke="#000000" d="M1270,30Q322,236,142,-194" stroke-width="5" opacity="1" style="-webkit-tap-highlight-color: rgba(0, 0, 0, 0); opacity: 1;"></path><path fill="none" stroke="#000000" d="M1270,30Q157,284,142,-194" stroke-width="5" opacity="1" style="-webkit-tap-highlight-color: rgba(0, 0, 0, 0); opacity: 1;"></path><path fill="none" stroke="#000000" d="M1270,30Q697,640,142,-194" stroke-width="5" opacity="1" style="-webkit-tap-highlight-color: rgba(0, 0, 0, 0); opacity: 1;"></path><path fill="none" stroke="#000000" d="M1270,30Q46,460,142,-194" stroke-width="5" opacity="1" style="-webkit-tap-highlight-color: rgba(0, 0, 0, 0); opacity: 1;"></path><path fill="none" stroke="#000000" d="M1270,30Q262,295,142,-194" stroke-width="5" opacity="1" style="-webkit-tap-highlight-color: rgba(0, 0, 0, 0); opacity: 1;"></path><path fill="none" stroke="#000000" d="M1270,30Q68,485,142,-194" stroke-width="5" opacity="1" style="-webkit-tap-highlight-color: rgba(0, 0, 0, 0); opacity: 1;"></path><path fill="none" stroke="#000000" d="M1270,30Q71,-134,142,-194" stroke-width="5" opacity="1" style="-webkit-tap-highlight-color: rgba(0, 0, 0, 0); opacity: 1;"></path><path fill="none" stroke="#000000" d="M1270,30Q121,727,142,-194" stroke-width="5" opacity="1" style="-webkit-tap-highlight-color: rgba(0, 0, 0, 0); opacity: 1;"></path><path fill="none" stroke="#000000" d="M-72,797Q-52,182,1204,609" stroke-width="5" opacity="1" style="-webkit-tap-highlight-color: rgba(0, 0, 0, 0); opacity: 1;"></path><path fill="none" stroke="#000000" d="M-72,797Q1344,238,1204,609" stroke-width="5" opacity="1" style="-webkit-tap-highlight-color: rgba(0, 0, 0, 0); opacity: 1;"></path><path fill="none" stroke="#000000" d="M-72,797Q871,459,1204,609" stroke-width="5" opacity="1" style="-webkit-tap-highlight-color: rgba(0, 0, 0, 0); opacity: 1;"></path><path fill="none" stroke="#000000" d="M-72,797Q274,-88,1204,609" stroke-width="5" opacity="1" style="-webkit-tap-highlight-color: rgba(0, 0, 0, 0); opacity: 1;"></path><path fill="none" stroke="#000000" d="M-72,797Q828,196,1204,609" stroke-width="5" opacity="1" style="-webkit-tap-highlight-color: rgba(0, 0, 0, 0); opacity: 1;"></path><path fill="none" stroke="#000000" d="M-72,797Q-25,18,1204,609" stroke-width="5" opacity="1" style="-webkit-tap-highlight-color: rgba(0, 0, 0, 0); opacity: 1;"></path><path fill="none" stroke="#000000" d="M-72,797Q881,-191,1204,609" stroke-width="5" opacity="1" style="-webkit-tap-highlight-color: rgba(0, 0, 0, 0); opacity: 1;"></path><path fill="none" stroke="#000000" d="M-72,797Q10,2,1204,609" stroke-width="5" opacity="1" style="-webkit-tap-highlight-color: rgba(0, 0, 0, 0); opacity: 1;"></path><path fill="none" stroke="#000000" d="M-72,797Q256,204,1204,609" stroke-width="5" opacity="1" style="-webkit-tap-highlight-color: rgba(0, 0, 0, 0); opacity: 1;"></path><path fill="none" stroke="#000000" d="M-72,797Q-13,518,1204,609" stroke-width="5" opacity="1" style="-webkit-tap-highlight-color: rgba(0, 0, 0, 0); opacity: 1;"></path><path fill="none" stroke="#000000" d="M-72,797Q398,871,1204,609" stroke-width="5" opacity="1" style="-webkit-tap-highlight-color: rgba(0, 0, 0, 0); opacity: 1;"></path><path fill="none" stroke="#000000" d="M-72,797Q-16,120,1204,609" stroke-width="5" opacity="1" style="-webkit-tap-highlight-color: rgba(0, 0, 0, 0); opacity: 1;"></path><path fill="none" stroke="#000000" d="M-72,797Q-85,292,1204,609" stroke-width="5" opacity="1" style="-webkit-tap-highlight-color: rgba(0, 0, 0, 0); opacity: 1;"></path><path fill="none" stroke="#000000" d="M-72,797Q-168,330,1204,609" stroke-width="5" opacity="1" style="-webkit-tap-highlight-color: rgba(0, 0, 0, 0); opacity: 1;"></path><path fill="none" stroke="#000000" d="M-72,797Q159,539,1204,609" stroke-width="5" opacity="1" style="-webkit-tap-highlight-color: rgba(0, 0, 0, 0); opacity: 1;"></path><path fill="none" stroke="#000000" d="M-72,797Q199,-192,1204,609" stroke-width="5" opacity="1" style="-webkit-tap-highlight-color: rgba(0, 0, 0, 0); opacity: 1;"></path><path fill="none" stroke="#000000" d="M-72,797Q717,25,1204,609" stroke-width="5" opacity="1" style="-webkit-tap-highlight-color: rgba(0, 0, 0, 0); opacity: 1;"></path><path fill="none" stroke="#000000" d="M-72,797Q386,12,1204,609" stroke-width="5" opacity="1" style="-webkit-tap-highlight-color: rgba(0, 0, 0, 0); opacity: 1;"></path><path fill="none" stroke="#000000" d="M-72,797Q-26,764,1204,609" stroke-width="5" opacity="1" style="-webkit-tap-highlight-color: rgba(0, 0, 0, 0); opacity: 1;"></path><path fill="none" stroke="#000000" d="M-72,797Q1230,416,1204,609" stroke-width="5" opacity="1" style="-webkit-tap-highlight-color: rgba(0, 0, 0, 0); opacity: 1;"></path><path fill="none" stroke="#000000" d="M-72,797Q463,64,1204,609" stroke-width="5" opacity="1" style="-webkit-tap-highlight-color: rgba(0, 0, 0, 0); opacity: 1;"></path><path fill="none" stroke="#000000" d="M-72,797Q110,230,1204,609" stroke-width="5" opacity="1" style="-webkit-tap-highlight-color: rgba(0, 0, 0, 0); opacity: 1;"></path><path fill="none" stroke="#000000" d="M-72,797Q101,467,1204,609" stroke-width="5" opacity="1" style="-webkit-tap-highlight-color: rgba(0, 0, 0, 0); opacity: 1;"></path><path fill="none" stroke="#000000" d="M-72,797Q196,702,1204,609" stroke-width="5" opacity="1" style="-webkit-tap-highlight-color: rgba(0, 0, 0, 0); opacity: 1;"></path><path fill="none" stroke="#000000" d="M-72,797Q150,24,1204,609" stroke-width="5" opacity="1" style="-webkit-tap-highlight-color: rgba(0, 0, 0, 0); opacity: 1;"></path></svg>