<svg version="1.0" xmlns="http://www.w3.org/2000/svg"
 width="1024.000000pt" height="765.000000pt" viewBox="0 0 1024.000000 765.000000"
 preserveAspectRatio="xMidYMid meet">

<g transform="translate(0.000000,765.000000) scale(0.100000,-0.100000)"
fill="#000000" stroke="none">
<path d="M4485 6988 c-31 -16 -45 -39 -45 -71 0 -43 16 -65 59 -78 30 -9 73
-45 180 -154 l141 -142 0 -196 0 -197 -42 -47 -43 -46 -3 -114 -4 -114 -38 43
-39 43 -1 107 0 107 -45 51 c-39 44 -45 56 -45 97 0 44 -3 49 -90 137 -49 51
-90 97 -90 103 0 6 7 16 15 23 9 7 15 29 15 50 0 97 -138 109 -156 14 -5 -28
-1 -42 20 -72 14 -21 26 -43 26 -48 0 -6 40 -50 89 -98 87 -87 89 -90 93 -143
4 -47 10 -59 46 -96 l40 -42 4 -111 3 -111 38 -42 c32 -35 37 -48 37 -89 0
-34 -3 -43 -10 -32 -5 8 -10 26 -10 40 0 17 -27 53 -89 118 l-88 92 -115 0
c-99 0 -117 3 -131 18 -10 10 -17 25 -17 34 0 37 -23 77 -51 88 -63 26 -130
-24 -115 -86 9 -34 41 -64 70 -64 13 0 43 -16 66 -35 l42 -35 108 0 108 0 63
-66 c35 -36 67 -71 71 -79 5 -7 -5 -28 -23 -51 -25 -32 -30 -45 -25 -74 8 -53
49 -83 103 -77 42 4 43 4 43 -24 0 -22 -25 -54 -130 -160 l-130 -132 0 -87 c0
-48 -3 -90 -7 -94 -4 -3 -33 19 -65 51 -64 63 -71 88 -38 130 64 81 -46 175
-122 106 -25 -22 -23 -84 2 -116 11 -14 20 -40 20 -59 0 -29 13 -46 95 -130
89 -90 95 -99 95 -137 0 -23 -3 -41 -7 -41 -5 0 -109 101 -232 224 l-224 224
22 28 c46 58 12 134 -60 134 -69 0 -108 -91 -59 -135 11 -10 20 -26 20 -35 0
-10 9 -29 21 -44 l20 -26 -33 0 c-68 0 -105 -59 -74 -118 24 -47 84 -57 129
-22 14 11 29 20 33 20 5 0 82 -73 171 -162 l163 -163 0 -368 0 -367 110 -113
109 -112 1 -270 c0 -148 -4 -275 -8 -281 -4 -6 -27 -14 -50 -17 -45 -5 -92
-39 -92 -64 0 -22 -13 -15 -72 44 l-58 57 0 70 c0 63 3 73 28 99 24 25 27 36
27 92 l0 63 -77 80 -78 80 0 152 c0 103 4 158 13 173 10 19 13 1 18 -118 3
-77 11 -161 18 -187 14 -53 49 -88 88 -88 32 0 83 51 83 83 0 36 -35 74 -75
81 l-35 7 0 179 c0 98 -4 181 -9 184 -14 9 -16 -28 -13 -216 l3 -178 30 0 c48
0 69 -16 69 -53 0 -41 -15 -57 -55 -57 -39 0 -55 16 -55 56 0 17 -7 37 -16 45
-13 11 -15 37 -12 176 2 90 2 163 0 163 -2 0 -19 -16 -38 -36 l-34 -37 0 -172
0 -171 80 -80 c77 -78 80 -82 80 -127 0 -39 -5 -51 -30 -74 -29 -26 -30 -29
-30 -117 l0 -91 180 -180 180 -180 0 -410 -1 -410 -33 -37 c-18 -21 -36 -35
-39 -32 -3 3 -6 196 -7 428 l0 421 -200 200 -200 200 0 114 c0 103 -2 113 -19
118 -40 10 -46 101 -8 125 23 15 66 8 87 -14 27 -29 25 -64 -5 -94 -24 -23
-25 -31 -25 -132 l0 -107 200 -200 200 -200 0 -397 c0 -259 4 -398 10 -398 7
0 10 143 10 408 l0 407 -185 185 -185 185 0 91 c0 87 1 91 30 119 24 23 30 37
30 70 0 37 -6 47 -75 115 l-75 74 0 190 0 189 61 64 c34 35 59 66 56 69 -9 9
-39 -16 -94 -78 l-53 -58 0 47 c0 44 3 50 75 124 l75 77 0 176 0 177 -44 47
-45 47 -218 3 -218 3 -92 92 c-51 50 -93 95 -93 100 0 5 9 20 20 34 43 56 9
133 -59 133 -49 0 -83 -34 -83 -84 0 -28 -4 -36 -18 -36 -10 0 -33 -12 -50
-26 -27 -24 -31 -32 -28 -72 4 -56 36 -84 94 -84 36 1 47 -7 132 -91 l92 -92
223 -3 c186 -3 224 -6 239 -19 15 -14 18 -34 18 -137 l0 -120 -57 -58 c-32
-32 -61 -58 -65 -58 -4 0 -8 30 -8 68 l0 67 -113 113 -112 112 -83 0 -84 0
-88 85 -88 85 -61 0 c-53 0 -63 3 -86 27 -23 26 -25 35 -25 127 0 95 1 99 30
133 17 18 30 42 30 52 0 10 9 26 20 36 13 12 20 31 20 57 0 49 -28 78 -75 78
-72 0 -109 -77 -64 -134 18 -23 19 -28 5 -41 -36 -36 -66 1 -66 83 l0 62 71
75 c57 60 72 82 76 114 3 24 15 49 29 62 17 16 24 33 24 61 0 54 -35 88 -90
88 -83 0 -120 -87 -65 -152 14 -16 25 -37 25 -47 0 -9 -28 -45 -63 -79 l-63
-62 -59 60 c-49 49 -60 67 -62 98 -5 80 -105 113 -157 51 -35 -41 -34 -83 3
-120 21 -21 39 -29 64 -29 28 0 45 -9 86 -49 49 -47 51 -51 51 -103 0 -44 -4
-59 -23 -76 -13 -12 -36 -22 -51 -22 -66 0 -99 -87 -51 -135 48 -49 135 -18
135 47 0 24 34 79 42 68 2 -3 13 -19 25 -36 19 -27 22 -47 25 -157 l3 -127 61
-61 c57 -57 66 -62 120 -69 59 -7 59 -7 -28 -9 l-86 -1 -46 44 c-48 47 -68 53
-186 59 l-55 2 -6 44 c-4 29 -14 51 -28 63 -28 22 -80 24 -107 3 -28 -21 -34
-18 -34 18 0 17 -6 44 -14 58 -7 14 -16 42 -20 62 -8 41 -46 77 -83 77 -14 0
-38 -13 -55 -30 -25 -26 -29 -36 -24 -63 8 -41 27 -59 74 -72 l37 -11 3 -106
3 -107 44 -49 c25 -28 45 -53 45 -56 0 -17 -44 -2 -75 25 -35 31 -35 32 -35
114 0 74 -3 87 -25 113 -14 17 -25 35 -25 41 0 7 -11 23 -25 36 -51 52 -135
15 -135 -59 0 -49 31 -76 87 -76 l43 0 0 -81 0 -81 54 -56 c54 -56 54 -56 122
-60 l69 -4 62 -61 c43 -42 61 -67 58 -78 -8 -24 19 -85 43 -98 58 -31 128 4
138 70 l7 39 58 0 c53 0 63 3 98 35 32 29 46 35 82 35 32 0 49 -6 62 -20 24
-29 88 -27 123 3 22 20 27 32 27 69 l-1 45 91 -4 c91 -5 93 -6 132 -44 41 -40
42 -69 1 -30 -16 15 -38 23 -61 24 -86 2 -116 -117 -38 -152 35 -16 57 -14 86
9 33 27 41 25 71 -11 l26 -31 0 -539 c0 -296 -3 -539 -7 -539 -4 0 -20 12 -35
27 l-28 27 0 178 0 178 -39 43 -39 42 -4 117 -3 117 -34 35 c-21 22 -48 38
-70 42 -20 4 -49 17 -64 30 -37 31 -96 32 -122 4 -10 -11 -23 -20 -29 -20 -6
0 -45 35 -88 77 l-78 77 -72 4 c-51 3 -80 10 -97 23 -33 26 -77 24 -106 -6
-31 -30 -32 -73 -4 -109 26 -33 84 -36 122 -6 16 13 40 20 69 20 41 0 48 -5
113 -71 39 -39 91 -81 116 -94 25 -13 51 -31 58 -39 21 -25 84 -20 119 9 36
30 46 31 72 5 18 -18 20 -33 20 -135 l0 -115 40 -44 40 -43 0 -170 c0 -160 1
-172 23 -201 12 -18 118 -130 235 -251 l212 -219 0 -233 0 -232 -86 -88 -87
-88 -5 -75 c-8 -136 -13 -129 199 -341 l189 -191 0 -468 0 -469 -55 -58 -55
-58 0 -245 c0 -157 4 -246 10 -246 6 0 10 87 10 241 l0 242 60 60 60 61 0 475
0 476 -195 195 -195 195 0 97 0 98 85 81 85 82 0 250 0 250 -52 56 c-29 31
-132 139 -230 240 l-178 183 0 180 0 180 -45 46 -45 45 0 117 c0 109 -2 118
-23 138 -31 30 -74 28 -103 -3 -31 -33 -76 -33 -102 0 -11 14 -28 25 -38 25
-10 0 -57 38 -104 84 l-85 85 -66 2 c-56 2 -69 -1 -87 -19 -28 -28 -56 -28
-83 -1 -15 15 -19 28 -14 47 13 55 62 68 100 26 22 -23 29 -25 95 -22 l72 2
84 -87 c47 -48 89 -87 94 -87 5 0 15 10 21 23 16 30 28 37 65 37 31 0 64 -25
64 -48 0 -7 17 -12 44 -12 38 0 48 -5 75 -36 l32 -36 -2 -115 -1 -115 41 -42
41 -42 0 -179 1 -180 229 -235 229 -235 1 -265 0 -265 -85 -85 -85 -85 0 -85
0 -86 195 -194 195 -194 0 -490 0 -489 -57 -61 -58 -61 3 -232 c2 -141 7 -233
12 -233 6 0 10 88 10 226 l0 227 42 46 c23 25 46 47 50 49 4 2 8 -120 8 -272
0 -239 2 -276 15 -276 13 0 15 164 15 1417 l0 1418 -222 222 -222 222 0 475
-1 476 78 72 77 73 0 156 0 155 -36 35 -35 34 -217 3 -217 3 -102 102 c-80 79
-104 110 -109 137 -4 19 -15 41 -26 48 -23 17 -23 64 0 85 34 31 83 16 97 -30
4 -17 -1 -30 -19 -48 -14 -14 -26 -34 -26 -43 0 -10 48 -66 108 -125 l107
-107 216 0 215 0 37 -38 37 -38 0 -170 0 -169 -80 -80 -80 -80 0 -454 0 -454
225 -226 225 -226 0 -1422 c0 -937 3 -1423 10 -1423 6 0 11 344 12 997 2 786
6 997 16 1001 8 2 12 -8 12 -35 0 -45 22 -80 57 -94 l25 -9 -31 -35 -31 -36 0
-849 c0 -466 3 -855 6 -864 9 -24 69 -31 99 -12 l25 16 0 515 c0 332 4 516 10
520 6 3 10 1 10 -6 0 -7 25 -38 55 -70 54 -57 55 -58 55 -119 0 -61 0 -62 -57
-122 l-58 -60 -3 -327 c-2 -275 0 -329 12 -346 13 -18 15 18 16 325 l0 345 55
55 55 56 0 75 0 75 -55 54 -55 54 0 331 0 331 50 49 50 49 0 401 0 402 -39 41
c-27 29 -45 39 -58 36 -44 -12 -72 66 -37 100 20 20 44 20 73 0 18 -13 22 -23
18 -48 -4 -26 2 -38 37 -74 l41 -43 1 -409 1 -408 -53 -53 -54 -53 0 -316 0
-316 55 -54 55 -54 0 -96 0 -96 -55 -54 -55 -54 0 -295 0 -295 45 44 c53 52
62 98 23 115 -18 8 -24 20 -26 52 -3 35 1 44 22 58 55 36 129 -12 109 -71 -5
-16 -19 -33 -31 -39 -16 -7 -22 -18 -22 -44 0 -28 -12 -46 -72 -109 -91 -97
-72 -110 23 -16 51 50 71 78 75 104 4 19 17 48 30 63 13 16 24 40 24 53 0 32
-25 80 -45 88 -31 11 -92 6 -105 -9 -25 -30 -31 -1 -29 142 l1 146 59 63 59
63 0 91 0 91 -57 61 -58 60 -3 299 -3 299 53 56 53 56 3 381 3 381 59 -59 60
-59 0 -534 c0 -519 -1 -535 -20 -559 -26 -33 -26 -83 0 -116 19 -24 20 -40 20
-531 0 -414 -2 -506 -14 -513 -43 -26 -47 -94 -7 -134 89 -88 215 38 128 129
l-27 28 0 499 c0 493 0 499 21 521 28 29 28 85 0 120 -21 26 -21 33 -21 577
l0 549 -80 82 -80 82 0 370 0 370 55 54 55 54 0 -342 c0 -278 3 -348 14 -370
8 -15 42 -54 75 -86 l61 -59 0 -998 c0 -548 3 -1004 6 -1013 3 -9 10 -16 15
-16 5 0 9 452 9 1017 l0 1017 -80 81 -81 82 3 376 3 377 -79 -79 -79 -79 1
-388 1 -388 80 -80 81 -81 0 -555 c0 -544 0 -555 20 -568 14 -8 20 -23 20 -47
0 -24 -6 -39 -20 -47 -20 -13 -20 -24 -20 -534 l0 -522 25 -16 c20 -13 25 -25
25 -56 0 -88 -115 -95 -136 -8 -5 23 0 33 25 57 l31 29 0 520 c0 512 0 521
-20 527 -38 12 -38 88 1 100 19 6 19 20 19 554 l0 548 -78 79 c-71 71 -80 84
-86 129 -5 28 -5 210 -1 407 l8 356 78 78 79 79 0 240 0 241 -55 54 -55 54 0
521 0 521 60 59 c48 48 58 63 54 82 -13 51 63 85 99 45 36 -39 7 -92 -49 -92
-23 0 -42 -13 -81 -52 l-52 -53 -3 -83 c-3 -84 0 -93 22 -67 18 22 67 18 91
-6 16 -16 20 -29 16 -55 -5 -29 -2 -37 19 -50 17 -11 24 -26 24 -47 0 -29 1
-29 18 -14 26 24 79 22 92 -2 18 -34 12 -88 -11 -105 -20 -13 -22 -24 -22
-103 l1 -89 76 -74 76 -73 0 -121 0 -122 -70 -69 -70 -69 0 -611 0 -610 85
-85 85 -85 0 -1347 c0 -892 3 -1348 10 -1348 7 0 10 458 10 1355 l0 1355 -80
84 -80 83 0 604 0 605 65 64 65 64 0 129 0 129 -75 77 -75 77 2 80 1 79 6 -77
6 -77 55 -56 c30 -30 58 -55 62 -55 18 0 5 21 -48 74 l-56 56 7 155 8 155 -57
56 -56 55 0 67 0 68 70 69 70 69 0 216 0 216 -45 44 -45 44 0 206 0 206 -35
34 c-35 34 -35 34 -35 125 0 84 -2 91 -22 100 -34 15 -38 87 -6 109 34 24 73
20 97 -10 29 -37 26 -61 -9 -94 -28 -26 -30 -33 -30 -102 0 -72 1 -75 35 -108
l35 -34 0 -212 0 -211 45 -42 45 -41 0 -231 0 -231 -67 -62 -66 -62 -2 -59
c-2 -59 -2 -60 51 -116 l54 -56 0 -159 c1 -154 1 -160 25 -186 13 -16 27 -28
30 -28 3 0 5 99 5 220 l0 219 95 92 95 92 0 51 c0 47 4 56 38 89 21 20 40 37
43 37 3 0 24 -18 47 -40 l42 -39 0 -154 0 -153 -125 -125 -125 -125 0 -530 0
-531 -48 -52 -49 -53 -2 -365 -2 -365 86 -87 85 -87 0 -1196 c0 -1051 2 -1197
15 -1208 8 -7 15 -9 15 -4 0 5 0 551 0 1214 l0 1205 -85 85 -85 85 0 363 0
363 45 48 45 48 0 509 0 509 150 150 150 150 0 444 c0 500 2 483 -69 474 -30
-4 -43 -1 -60 16 -42 42 -12 121 46 121 37 0 76 -45 70 -80 -5 -23 -1 -31 18
-44 l25 -16 0 -187 c0 -180 1 -186 18 -170 45 41 116 4 110 -58 -2 -26 4 -41
25 -63 l27 -28 0 -199 0 -200 -157 -157 -156 -157 -5 -191 -5 -190 52 -55 51
-54 0 -97 0 -98 -105 -106 -105 -107 0 -69 c0 -66 -1 -69 -40 -109 l-39 -40
-1 -330 c0 -181 -1 -336 0 -342 0 -7 5 -13 10 -13 6 0 10 118 10 333 l0 333
45 44 45 44 0 76 0 75 100 100 100 100 0 110 0 111 -45 44 -45 44 0 161 0 161
45 44 c34 34 45 52 45 75 0 63 77 98 120 55 27 -27 25 -66 -6 -96 -20 -21 -31
-25 -58 -20 -29 6 -38 2 -75 -35 l-41 -41 0 -147 0 -147 45 -44 45 -44 0 -121
0 -120 -100 -100 -100 -100 0 -81 0 -81 -45 -42 -45 -41 0 -361 c0 -238 3
-358 10 -354 6 4 10 132 10 350 l0 344 45 51 c44 50 45 52 45 122 0 69 1 72
42 117 23 25 50 52 60 59 16 12 17 11 8 -13 -6 -15 -10 -56 -10 -92 0 -50 -5
-71 -20 -90 -11 -14 -20 -38 -20 -53 0 -15 9 -39 20 -53 34 -43 26 -83 -25
-138 l-45 -48 0 -598 c-1 -1669 -1 -1640 -15 -1660 -12 -15 -14 95 -15 764 0
460 -4 792 -9 806 -9 23 -64 92 -131 164 l-30 32 0 349 0 348 40 39 c39 38 40
41 40 109 l0 69 105 107 105 106 0 85 0 86 -50 50 -50 51 0 204 0 204 160 159
160 159 0 186 c-1 181 -1 186 -25 212 -20 23 -29 27 -55 22 -22 -5 -36 -2 -50
11 -20 18 -20 16 -20 -227 l0 -244 -150 -148 -150 -148 0 -507 0 -507 -45 -44
-45 -44 0 -355 0 -356 85 -85 85 -85 0 -1253 c0 -703 4 -1252 9 -1252 5 0 12
7 15 16 3 9 6 189 6 400 0 229 4 384 9 384 18 0 22 -109 19 -558 -2 -356 0
-452 10 -452 9 0 12 108 12 506 0 504 0 506 -21 523 -28 23 -28 69 0 92 l21
17 0 1129 0 1129 50 46 c46 43 50 50 50 92 0 25 -4 46 -9 46 -19 0 -41 32 -41
60 0 20 8 35 25 46 23 15 25 22 25 103 l0 87 60 59 60 59 0 116 0 116 55 54
55 54 0 281 0 281 55 54 55 54 0 201 0 201 -60 59 -60 59 0 96 c0 96 0 96 -33
128 -28 27 -38 31 -64 26 -59 -12 -95 60 -57 114 33 47 114 6 114 -58 0 -21 8
-38 27 -54 28 -24 40 -79 42 -188 1 -43 5 -51 61 -106 l60 -60 0 -216 0 -216
-55 -57 -55 -57 0 -282 0 -281 -55 -52 -55 -52 0 -117 0 -118 -60 -59 -60 -59
0 -81 c0 -69 3 -82 20 -93 14 -8 20 -23 20 -47 0 -24 -6 -37 -20 -45 -16 -9
-20 -21 -20 -63 0 -50 -3 -55 -50 -102 l-50 -49 0 -1121 c0 -1109 0 -1120 20
-1133 14 -8 20 -23 20 -47 0 -24 -6 -39 -20 -47 -20 -13 -20 -24 -20 -520 l0
-508 30 0 30 0 0 1478 0 1479 70 67 70 68 0 152 0 152 35 34 35 34 0 361 0
362 60 54 60 54 0 291 0 290 30 29 30 29 0 294 0 294 -60 62 c-55 57 -60 67
-60 107 0 108 -2 110 -164 270 -128 127 -155 149 -181 149 -38 0 -55 16 -55
51 0 35 24 59 59 59 35 0 48 -15 53 -57 2 -25 34 -64 156 -192 l152 -159 0
-73 0 -72 65 -68 65 -67 0 -301 0 -300 -30 -34 -30 -35 0 -287 0 -287 -60 -62
-60 -63 0 -354 0 -355 -35 -34 -35 -34 0 -154 0 -154 -70 -72 -70 -73 0 -1466
c0 -971 3 -1467 10 -1467 7 0 10 492 10 1457 l0 1457 67 68 67 68 4 164 4 164
39 38 39 38 0 359 0 359 50 51 50 50 0 287 0 286 35 34 35 34 0 316 0 316 -64
63 -64 63 -4 79 -5 79 -91 94 -92 93 0 104 0 104 145 145 145 145 0 52 c0 39
4 55 19 65 11 8 19 25 19 42 0 51 62 75 95 38 38 -41 0 -114 -51 -98 -39 13
-52 -2 -52 -63 l0 -56 -140 -140 -140 -140 0 -96 0 -97 85 -83 85 -83 0 -81 0
-81 70 -69 70 -69 0 -325 0 -325 -37 -39 -38 -38 0 -290 0 -290 -47 -45 -48
-46 0 -362 0 -363 -45 -42 -45 -42 0 -157 0 -158 -65 -64 -65 -64 0 -1453 c0
-1285 2 -1453 15 -1453 13 0 15 64 16 513 1 281 3 504 6 495 19 -75 23 71 23
935 l0 952 220 220 220 220 0 460 0 460 -80 80 -80 80 0 171 0 172 41 41 41
41 207 0 206 0 103 103 c84 84 102 108 102 132 0 20 -7 35 -21 43 -32 20 -23
83 13 96 44 16 78 -6 78 -49 0 -24 -6 -39 -20 -47 -15 -9 -20 -24 -20 -53 0
-39 -6 -47 -113 -153 l-114 -112 -208 0 -209 0 -28 -27 -28 -27 0 -156 0 -155
80 -80 80 -80 0 -475 0 -475 -220 -220 -220 -220 0 -918 c0 -610 3 -916 10
-912 6 4 10 59 10 134 l0 127 35 34 c31 30 35 40 35 83 0 43 -5 55 -35 88
l-35 39 0 648 0 648 220 219 220 219 0 506 0 506 -75 74 -75 74 0 131 0 131
33 32 33 32 211 0 211 0 101 102 c80 82 101 108 101 131 0 45 17 67 51 67 51
0 69 -16 69 -59 0 -46 -19 -65 -65 -64 -28 1 -45 -12 -136 -103 l-104 -104
-216 0 c-272 0 -259 8 -259 -163 l0 -117 75 -72 75 -72 0 -520 0 -521 -220
-220 -220 -220 0 -635 0 -636 40 -39 c39 -38 39 -40 35 -99 -4 -52 -9 -64 -40
-96 l-35 -36 0 -130 c0 -130 0 -131 -26 -144 -25 -14 -52 -50 -37 -50 5 0 25
11 44 25 43 28 50 57 48 199 -1 87 0 89 32 122 30 31 34 41 37 105 l4 70 24
-22 c18 -17 24 -33 24 -67 0 -40 -5 -51 -50 -98 -27 -29 -50 -61 -51 -71 -4
-134 -3 -929 1 -961 5 -29 17 -54 38 -75 31 -32 32 -36 32 -120 0 -71 3 -87
15 -87 12 0 15 17 15 93 l0 93 -40 39 -40 39 0 491 0 491 55 54 c52 52 55 57
55 105 0 50 -1 52 -75 125 l-75 74 0 616 0 616 220 219 220 219 0 591 0 590
108 108 107 107 70 0 70 0 85 85 85 85 59 0 c57 0 62 2 103 42 l43 42 0 101 0
101 -40 39 c-26 25 -40 48 -40 65 0 14 -8 30 -20 38 -38 24 -15 102 31 102 51
0 80 -76 39 -102 -31 -19 -24 -50 20 -93 l40 -39 0 -111 0 -111 -52 -51 c-50
-48 -56 -51 -117 -56 l-64 -5 -78 -83 -78 -82 -68 2 -68 2 -102 -100 -103
-100 0 -583 0 -582 -220 -221 -220 -221 0 -605 0 -605 75 -74 75 -74 0 -66 0
-66 -55 -54 -55 -54 0 -480 0 -479 40 -34 40 -35 0 -104 c0 -89 2 -104 16
-104 14 0 16 13 12 105 l-3 105 -38 38 -37 38 0 470 0 470 45 44 c53 52 64 79
60 154 -3 56 -4 59 -74 130 l-71 74 0 323 0 323 94 -90 c51 -49 92 -95 90
-102 -2 -8 -4 -71 -4 -142 0 -122 -1 -130 -25 -158 -56 -67 -18 -157 67 -157
79 0 116 90 63 153 -24 28 -25 37 -25 148 l0 119 75 76 75 76 86 6 86 5 62 61
62 61 200 0 200 0 49 -51 c58 -59 92 -79 135 -79 18 0 43 -9 57 -20 32 -25 84
-26 112 -3 12 10 24 35 27 55 5 30 2 41 -19 62 -32 32 -83 35 -120 6 -42 -33
-65 -25 -138 45 -66 64 -68 65 -123 65 -31 0 -56 3 -56 8 0 4 30 38 68 75 60
59 72 67 106 67 23 0 48 -8 63 -20 35 -27 78 -26 108 5 32 31 32 75 1 111 -29
35 -86 37 -120 5 -16 -16 -35 -21 -72 -21 -48 0 -51 -2 -124 -75 l-74 -75
-152 0 c-83 0 -166 -3 -184 -7 -22 -4 -58 -30 -105 -75 l-72 -68 -59 0 -60 0
-69 -70 c-38 -38 -74 -70 -80 -70 -6 0 -42 32 -80 72 -39 39 -62 66 -53 59 36
-27 39 -4 4 38 l-36 43 0 180 0 181 107 108 107 109 177 0 176 0 92 91 91 92
0 173 c0 163 -1 174 -20 184 -13 7 -20 21 -20 40 0 18 8 37 20 47 30 26 27 93
-5 123 l-25 24 -65 -64 -65 -64 0 -216 0 -216 -67 -66 -68 -67 -67 -3 c-69 -3
-80 -12 -28 -23 78 -17 157 27 232 129 l28 39 0 206 0 207 49 48 c27 27 54 45
60 42 17 -11 13 -67 -6 -88 -9 -11 -17 -34 -17 -53 0 -19 8 -42 17 -53 15 -16
17 -42 17 -183 l0 -164 -80 -80 -80 -80 -171 -3 c-139 -3 -170 -1 -163 10 16
29 40 50 70 63 18 7 59 42 93 76 l61 64 0 355 0 356 85 83 85 84 0 76 0 76
100 100 100 100 0 121 0 121 50 47 c43 40 55 46 92 46 38 0 48 6 100 57 l58
57 0 188 0 187 45 42 45 42 0 111 0 111 120 120 c102 102 120 124 120 151 0
55 59 84 93 46 37 -41 4 -111 -45 -98 -19 5 -42 -14 -140 -112 l-118 -117 0
-108 0 -108 -45 -48 -45 -48 0 -181 0 -180 -27 -33 c-81 -96 -98 -109 -144
-109 -40 0 -50 -5 -87 -43 l-42 -43 0 -120 0 -119 -100 -100 -100 -100 0 -75
0 -75 -85 -85 -85 -85 0 -356 0 -357 -56 -51 c-54 -49 -55 -51 -28 -51 21 0
44 15 86 57 l58 57 0 216 0 216 77 77 c42 42 79 77 83 77 4 0 24 -15 44 -34
32 -31 36 -40 36 -85 0 -40 4 -52 20 -61 14 -8 20 -21 20 -45 0 -24 -6 -37
-20 -45 -19 -10 -20 -21 -20 -193 l0 -182 -98 -98 -97 -97 -175 0 -175 0 -103
-103 -102 -103 2 -174 c2 -123 6 -174 15 -177 9 -3 12 37 11 162 l-1 167 84
86 c46 48 89 90 94 94 6 4 98 8 205 8 l195 0 195 196 195 195 52 -3 53 -3 140
140 140 140 0 155 0 156 30 29 c28 27 30 34 30 100 l0 70 108 108 107 107 129
0 128 0 -6 26 c-15 59 57 100 97 56 36 -39 10 -92 -44 -92 -16 0 -29 -4 -29
-10 0 -6 -49 -10 -128 -10 l-127 0 -103 -103 -102 -102 0 -71 c0 -66 -2 -71
-30 -92 l-30 -23 0 -163 0 -163 -140 -136 c-96 -95 -133 -137 -120 -137 34 0
63 -38 56 -72 -5 -25 0 -35 36 -69 40 -38 43 -39 113 -39 59 0 75 4 90 20 16
18 31 20 159 20 l140 0 43 42 c41 41 43 45 43 103 0 34 4 65 9 71 5 5 11 25
13 44 2 25 10 38 29 49 24 13 29 13 53 -2 20 -13 26 -26 26 -52 0 -39 -23 -58
-68 -53 -27 3 -27 3 -30 -67 -3 -68 -4 -71 -50 -117 l-46 -48 -139 0 c-135 0
-140 -1 -170 -26 -30 -25 -35 -26 -112 -19 -76 6 -82 9 -120 45 -36 35 -44 39
-77 34 -28 -5 -40 -2 -57 15 -23 23 -28 70 -9 89 17 17 8 21 -44 15 -45 -5
-52 -12 -234 -194 l-188 -189 -196 0 -195 0 -84 -84 -83 -83 0 -174 c0 -220 0
-221 12 -214 6 4 10 78 10 188 l0 182 78 78 77 77 170 0 c94 0 186 4 205 10
25 7 85 60 221 196 194 194 219 210 219 144 0 -47 38 -80 93 -80 31 0 49 -6
62 -20 16 -18 16 -23 3 -57 -17 -43 -9 -90 19 -110 25 -19 77 -16 106 7 17 14
40 20 75 20 44 0 54 -4 76 -31 15 -18 26 -43 26 -60 0 -17 4 -38 9 -47 16 -28
154 -169 178 -181 12 -6 62 -11 112 -11 88 0 91 -1 97 -25 15 -61 96 -84 139
-40 32 31 32 75 1 112 -24 28 -25 28 -168 31 l-143 3 -72 72 c-62 60 -73 77
-73 105 0 18 -5 43 -11 55 -21 40 -72 86 -103 93 l-30 6 28 24 c26 23 34 24
164 24 l138 0 52 53 c50 51 52 55 52 109 0 58 8 68 50 68 22 0 60 45 60 72 0
69 -75 110 -128 71 -31 -23 -61 -118 -62 -194 0 -36 -6 -50 -27 -71 -27 -26
-33 -27 -168 -30 -128 -3 -143 -5 -169 -25 -22 -18 -42 -23 -85 -23 -51 0 -60
3 -89 33 -22 23 -32 43 -32 64 0 16 -10 42 -21 57 l-22 27 122 123 121 123 0
153 0 152 30 35 c27 30 30 41 30 100 l0 66 92 93 92 94 104 0 c120 0 218 21
245 52 33 39 21 100 -25 124 -53 27 -110 -6 -120 -71 -3 -18 -13 -20 -121 -25
l-117 -5 -111 -111 -111 -112 -6 -71 c-3 -42 -10 -75 -18 -82 -15 -13 -17 3
-14 111 l2 55 89 91 89 91 0 56 c0 54 3 59 48 108 67 72 84 79 200 79 84 0
103 3 125 20 14 11 37 20 52 20 28 0 65 16 77 34 4 6 8 30 8 53 0 49 -25 73
-76 73 -42 0 -74 -27 -83 -70 -10 -50 -37 -60 -160 -60 l-105 0 -83 -83 -83
-83 0 -60 0 -59 -90 -90 -90 -90 0 -147 0 -147 -45 -51 -45 -51 0 -80 0 -81
-77 -79 c-89 -92 -111 -102 -156 -68 -63 47 -141 16 -141 -56 0 -42 28 -74 73
-84 l31 -6 -177 -175 c-98 -96 -136 -132 -85 -79 l92 96 0 176 c0 134 3 179
13 189 43 42 47 85 12 126 -18 22 -25 42 -25 72 0 36 -6 48 -39 81 -22 23 -48
39 -62 39 -15 0 -49 -26 -101 -78 l-78 -78 0 -212 c0 -130 -4 -213 -10 -217
-7 -4 -10 107 -10 327 l1 333 84 89 85 89 0 75 0 75 103 104 102 104 3 124 4
124 34 31 c26 23 44 30 75 30 35 0 48 7 93 50 45 42 59 50 92 50 l39 0 -89
-89 c-89 -89 -89 -90 -94 -148 -3 -35 -12 -67 -23 -82 -40 -51 -13 -117 53
-127 30 -5 41 -2 62 19 32 32 35 83 6 120 -37 47 -27 80 48 156 l68 69 111 4
c97 3 115 6 142 26 18 13 45 22 66 22 71 0 107 73 71 143 -14 25 -13 27 4 27
11 0 35 14 53 30 20 17 46 30 61 30 64 0 100 91 56 138 -44 47 -140 16 -140
-46 0 -52 -23 -69 -95 -74 l-65 -4 -68 -67 -68 -67 -82 0 -82 0 0 86 0 87 45
48 45 48 0 144 0 143 33 32 c20 20 48 35 70 39 47 7 71 35 71 80 0 27 -7 42
-28 60 l-29 24 34 35 c21 21 42 34 59 34 55 0 89 54 69 109 -30 79 -138 63
-154 -22 -5 -25 -36 -63 -121 -150 l-114 -117 0 -72 c-1 -120 -8 -149 -50
-194 -30 -32 -39 -52 -45 -94 -7 -52 -7 -52 -27 -32 -19 19 -19 21 -3 45 26
41 23 86 -9 114 -71 60 -167 -13 -122 -94 8 -15 23 -44 32 -63 9 -19 31 -51
49 -71 30 -34 32 -40 33 -117 2 -81 2 -82 -34 -122 -34 -37 -40 -40 -91 -40
-70 0 -95 -14 -174 -99 l-67 -71 -63 0 c-35 0 -70 -4 -77 -8 -30 -20 -206
-197 -218 -221 -8 -14 -14 -44 -14 -66 l0 -39 -65 64 -65 64 0 102 c0 141 -12
134 233 134 107 0 206 4 219 9 13 5 66 52 119 105 53 53 104 96 113 96 9 0 32
6 51 14 79 33 53 156 -33 156 -29 0 -33 3 -27 18 29 67 0 122 -65 122 -52 0
-84 -27 -84 -73 0 -20 8 -44 17 -55 34 -37 22 -62 -76 -160 l-92 -92 -198 0
c-204 0 -220 -3 -264 -43 -37 -33 -27 1 12 44 l35 39 0 326 c0 223 -4 332 -11
347 -7 12 -36 45 -65 73 -54 51 -54 52 -54 113 0 84 -15 114 -104 201 l-76 74
0 86 0 85 137 137 c136 136 137 138 143 190 5 52 6 53 42 59 53 8 78 34 78 79
0 98 -133 109 -156 13 -4 -16 -13 -35 -21 -44 -7 -9 -16 -40 -19 -70 -6 -54
-7 -55 -143 -192 l-136 -137 -3 -90 c-2 -50 -7 -90 -11 -90 -18 0 -79 79 -85
109 -3 19 -14 43 -23 53 -20 22 -80 24 -111 2 -30 -21 -31 -88 -1 -120 l21
-23 -21 -27 c-11 -15 -21 -33 -21 -40 0 -23 -14 -16 -63 34 l-48 48 3 154 3
155 39 6 c87 14 104 112 28 153 -25 14 -21 15 75 16 93 0 104 2 131 25 17 14
42 25 60 25 85 0 121 115 53 167 -9 7 -33 13 -54 13 -52 0 -87 -35 -87 -88 0
-22 -6 -44 -12 -50 -7 -6 -61 -12 -120 -14 l-108 -3 -85 -85 c-47 -47 -88 -94
-91 -105 -4 -11 -15 -31 -25 -44 -21 -26 -25 -72 -9 -100 15 -28 61 -44 93
-32 l27 11 1 -98 c0 -53 3 -108 5 -122 3 -15 57 -77 134 -156 l130 -131 0 -68
0 -68 -127 -128 -126 -128 -5 -56 c-4 -47 -9 -59 -39 -85 -18 -17 -45 -30 -59
-30 -35 0 -74 -42 -74 -80 0 -33 38 -80 64 -80 12 0 14 -5 6 -26 -6 -14 -11
-105 -12 -202 l-2 -177 -6 162 -5 162 -47 51 c-43 46 -48 57 -48 98 0 42 4 50
65 113 59 61 65 71 66 111 1 48 1 355 0 406 -1 25 -12 45 -46 81 l-45 48 0
201 0 201 -30 34 c-27 31 -30 41 -30 102 0 58 4 71 26 98 21 25 25 38 20 66
-3 20 -16 45 -30 57 -20 18 -24 28 -19 60 4 30 0 45 -17 67 -42 54 -140 23
-140 -44 0 -14 -11 -36 -24 -48 -13 -13 -27 -34 -31 -48 l-6 -26 -45 44 c-24
24 -44 48 -44 54 0 6 11 22 25 35 32 30 35 96 5 127 -26 29 -73 38 -107 21
-38 -18 -55 -54 -48 -103 l6 -40 -61 60 c-50 50 -60 65 -60 95 -1 39 -14 61
-47 78 -27 15 -42 15 -68 0z m80 -38 c12 -13 15 -27 11 -45 -6 -23 10 -43 144
-183 l150 -156 0 -221 0 -221 -40 -39 -40 -39 0 -286 0 -285 -135 -135 -135
-135 0 -90 0 -90 89 -89 c81 -81 90 -87 111 -76 50 27 108 -22 95 -80 -4 -16
-15 -35 -25 -40 -24 -13 -67 -13 -75 0 -11 18 -22 1 -17 -28 3 -20 28 -53 78
-103 l74 -73 0 -167 0 -167 55 -53 55 -52 0 -226 0 -226 -72 -72 -72 -73 -4
-202 -4 -203 -81 -82 c-44 -46 -77 -86 -73 -90 3 -4 35 21 69 55 34 34 66 62
70 62 4 0 7 -67 7 -150 0 -90 -4 -150 -10 -150 -13 0 -32 38 -25 49 8 13 -13
62 -33 77 -20 16 -66 18 -90 5 -16 -8 -17 24 -14 475 l3 484 -114 118 -115
117 -4 438 -3 437 -98 98 c-94 94 -97 99 -97 142 0 34 -5 48 -20 58 -22 13
-26 43 -10 73 8 13 21 19 45 19 61 0 85 -73 34 -100 -13 -7 -19 -21 -19 -44 0
-28 14 -47 100 -134 l100 -100 0 -439 0 -438 115 -115 115 -115 0 -427 0 -428
65 67 64 68 1 201 0 202 70 65 70 65 0 208 0 207 -55 58 -55 58 0 168 0 168
-79 79 c-74 74 -79 80 -74 115 4 35 0 40 -126 166 l-131 130 0 100 0 100 135
135 135 135 0 160 0 161 -46 44 -45 45 2 108 3 108 -42 42 c-38 39 -42 48 -42
93 0 49 0 50 -95 144 -63 63 -95 102 -95 117 0 12 -9 27 -19 33 -42 22 -33 94
14 106 59 15 105 -67 55 -98 -11 -7 -20 -21 -20 -31 0 -10 43 -59 95 -109 l95
-90 0 -52 c0 -48 3 -55 45 -96 l45 -44 0 -111 0 -112 40 -43 40 -43 0 -171 0
-171 -135 -135 -135 -135 0 -88 0 -89 118 -120 c85 -87 118 -115 120 -103 3
12 -32 53 -97 119 l-101 101 0 90 0 90 140 140 140 140 0 285 0 286 40 39 40
39 0 211 0 210 -152 153 c-94 94 -159 152 -172 152 -44 0 -68 48 -46 91 14 26
71 26 95 -1z m293 -87 c27 -37 4 -113 -35 -113 -32 0 -11 -48 47 -105 l60 -59
0 -236 0 -236 -35 -34 -35 -34 0 -331 0 -332 -100 -97 -100 -97 0 -72 c1 -85
13 -106 60 -105 54 2 80 -54 43 -94 -38 -42 -110 -5 -96 50 4 17 0 27 -16 38
-19 14 -21 25 -21 107 l0 92 95 95 95 95 0 323 0 322 40 44 40 43 0 222 0 221
-60 62 c-40 41 -60 71 -60 87 0 13 -11 34 -25 47 -32 30 -32 68 1 101 20 20
31 24 57 19 18 -3 38 -14 45 -23z m256 -95 c32 -45 9 -88 -47 -88 -18 0 -40
-9 -54 -22 -22 -21 -23 -26 -23 -210 l0 -188 50 -48 50 -48 0 -160 0 -160 50
-49 c45 -44 50 -54 50 -92 0 -31 4 -43 15 -43 20 0 30 -46 17 -74 -13 -29 -43
-37 -74 -22 -32 16 -38 80 -9 96 37 19 26 58 -34 121 l-55 58 0 158 0 159 -45
44 -45 44 0 208 0 207 30 22 c23 18 28 28 24 46 -14 54 68 87 100 41z m736 2
c27 -27 25 -66 -6 -97 -19 -19 -32 -24 -53 -20 -22 5 -34 0 -57 -24 -27 -29
-29 -29 -133 -29 l-106 0 -77 -77 c-43 -43 -78 -83 -78 -89 0 -6 10 -18 21
-26 24 -16 29 -59 9 -83 -7 -8 -25 -15 -41 -15 -58 0 -80 62 -34 98 17 13 23
26 19 37 -5 12 17 41 82 106 l89 90 102 -2 c86 -1 105 1 126 17 19 16 23 26
19 57 -3 27 1 44 13 57 24 26 79 26 105 0z m-805 -247 c21 -25 24 -38 25 -109
0 -76 2 -82 30 -109 l30 -29 0 -193 c0 -216 4 -236 64 -292 27 -26 36 -43 36
-68 0 -18 -4 -33 -10 -33 -5 0 -10 14 -10 31 0 22 -13 46 -49 87 l-50 57 -3
157 -3 157 -47 48 -48 49 0 137 c0 75 2 137 5 137 3 0 17 -12 30 -27z m495 7
c26 -26 25 -55 -1 -81 -15 -15 -28 -19 -46 -14 -46 11 -52 -13 -53 -190 l0
-160 130 -130 130 -130 0 -100 0 -100 -125 -125 -125 -125 0 -50 c0 -47 -3
-54 -48 -99 -38 -36 -48 -53 -45 -71 5 -26 -27 -65 -52 -65 -20 0 -65 45 -65
65 0 25 39 57 65 53 17 -2 37 9 68 40 42 41 44 46 39 88 l-5 45 132 132 131
133 0 80 0 79 -130 130 -130 130 0 182 c0 170 1 184 19 195 14 9 18 19 14 39
-4 19 1 33 16 48 26 26 55 27 81 1z m-120 -57 c-1 -18 -30 -44 -40 -38 -8 5
-6 13 6 26 17 19 34 25 34 12z m-419 -299 c23 -24 24 -33 29 -189 l5 -164 48
-48 c53 -55 57 -71 25 -113 -19 -26 -20 -34 -10 -69 14 -45 53 -67 101 -56
l31 7 0 -91 0 -90 -56 -53 c-71 -68 -84 -94 -84 -168 0 -71 8 -90 63 -147 l41
-43 -45 0 c-39 0 -48 4 -67 30 -12 16 -22 42 -22 58 0 41 -42 80 -88 84 -36 3
-37 4 -40 47 -3 41 0 47 44 92 27 27 57 49 67 49 26 0 74 27 81 45 11 30 6 70
-12 91 -45 56 -141 24 -142 -46 0 -17 -16 -41 -46 -70 -77 -75 -74 -60 -74
-427 l0 -327 -60 59 -60 60 40 13 c72 24 92 115 35 160 -24 19 -24 21 -10 55
24 59 -13 117 -76 117 -32 0 -39 15 -39 82 0 51 0 51 98 150 l97 99 5 334 5
333 29 28 c33 33 46 63 46 105 0 36 9 37 41 3z m-863 -90 c17 -11 22 -24 20
-43 -1 -19 7 -39 24 -59 l27 -32 115 0 115 0 85 -87 c73 -75 86 -93 86 -122 0
-23 8 -41 25 -57 47 -43 21 -124 -40 -124 -31 0 -75 41 -75 71 0 11 14 34 30
49 17 15 30 38 30 50 0 13 -29 54 -72 101 l-72 79 -117 0 -117 0 -35 39 c-27
30 -40 38 -59 34 -53 -10 -81 70 -36 101 28 20 38 20 66 0z m1667 -154 c-5 -9
-15 -4 -31 16 -35 44 -30 64 7 27 19 -19 29 -36 24 -43z m-92 -42 c9 -34 -3
-41 -29 -17 -25 24 -23 39 5 39 11 0 21 -9 24 -22z m192 -161 c10 -14 15 -46
15 -94 l0 -72 -25 24 c-16 17 -35 25 -58 25 -40 0 -47 11 -47 75 0 66 4 71 55
67 32 -3 50 -10 60 -25z m1603 -60 c6 -5 12 -24 12 -43 0 -37 -27 -60 -62 -51
-14 4 -32 -7 -64 -41 l-44 -46 0 -145 0 -145 -44 -46 -45 -45 -2 -105 -3 -105
95 -3 94 -3 70 71 69 70 61 0 c56 0 64 3 93 33 23 24 30 38 25 55 -14 55 71
85 103 37 30 -46 -3 -94 -60 -86 -11 2 -30 -11 -48 -33 -28 -34 -32 -36 -92
-36 l-63 0 -69 -70 -68 -70 -118 0 -118 0 0 130 0 131 45 48 45 48 0 142 0
142 45 48 c29 31 45 57 45 74 0 49 57 75 98 44z m-4278 -7 c20 -20 26 -65 12
-86 -4 -6 -17 -16 -29 -23 -18 -9 -23 -20 -23 -54 0 -39 -5 -48 -70 -112 l-70
-69 0 -81 c0 -74 2 -84 25 -105 24 -23 25 -28 25 -155 l0 -132 50 -47 c46 -43
53 -46 102 -46 50 0 55 -3 105 -52 29 -29 53 -56 53 -60 0 -4 -73 -8 -161 -8
l-161 0 -48 50 -48 50 -93 0 c-73 0 -96 4 -111 17 -12 11 -32 16 -52 15 -26
-3 -38 3 -55 24 -26 34 -27 54 0 88 42 53 123 20 118 -49 -5 -56 11 -65 115
-65 l92 0 49 -50 49 -50 125 0 126 0 -32 32 c-29 28 -38 31 -83 29 -49 -2 -52
0 -110 55 l-60 57 0 133 c0 131 0 134 -25 150 -24 16 -25 21 -25 119 l0 102
70 67 c63 61 70 72 70 107 0 21 -4 39 -9 39 -19 0 -41 32 -41 61 0 38 32 69
70 69 17 0 39 -9 50 -20z m2488 -369 c0 -141 -3 -262 -5 -268 -11 -27 -25 -11
-22 25 1 20 1 93 0 161 l-1 124 -44 43 c-24 24 -52 44 -63 44 -20 0 -83 -54
-102 -87 -9 -16 -10 -15 -11 7 0 18 30 54 117 142 115 115 118 117 125 91 4
-15 7 -142 6 -282z m-2864 270 c12 -13 17 -32 15 -55 -3 -33 2 -42 62 -99 l66
-64 -2 -77 c-3 -75 -5 -80 -39 -115 -27 -27 -34 -42 -29 -59 7 -29 -21 -62
-54 -62 -28 0 -63 33 -63 60 0 32 37 63 67 56 19 -5 31 0 55 26 27 29 30 39
30 96 l0 64 -58 59 c-53 54 -61 59 -91 53 -26 -5 -37 -1 -57 20 -15 14 -26 32
-26 41 0 20 19 57 34 67 21 15 73 8 90 -11z m3193 -13 c18 -18 33 -41 33 -52
0 -17 -6 -14 -40 19 -36 35 -51 65 -33 65 4 0 22 -14 40 -32z m-53 -100 l56
-61 0 -184 0 -183 -55 -57 -55 -58 0 -278 0 -278 -57 -60 -57 -60 -4 -119 c-4
-106 -7 -121 -26 -137 -20 -17 -20 -17 -6 1 16 21 27 191 15 252 -4 23 -22 54
-51 84 l-44 47 0 126 0 126 31 36 c26 29 38 35 71 35 30 0 46 7 69 29 43 44
35 120 -16 143 -14 6 -25 14 -25 17 0 4 29 37 65 74 l65 68 0 213 0 213 -25
23 c-25 23 -33 50 -16 50 5 0 34 -28 65 -62z m-2080 -30 c23 -32 20 -55 -9
-80 -14 -12 -25 -26 -25 -32 0 -6 111 -122 247 -258 l247 -247 -2 -367 -1
-368 112 -113 112 -114 2 -904 3 -904 25 -25 c30 -31 32 -55 4 -90 -40 -50
-119 -21 -119 44 0 21 8 36 31 52 l31 23 -6 605 c-3 333 -5 739 -6 902 l0 297
-105 108 -105 108 0 365 1 365 -248 244 c-163 161 -248 252 -248 266 -1 12
-11 31 -23 43 -12 12 -22 32 -22 44 0 53 74 79 104 36z m886 5 c0 -10 -39 -56
-87 -103 -48 -47 -92 -95 -98 -106 -6 -12 -11 -60 -10 -107 0 -66 4 -90 18
-105 9 -10 17 -29 17 -42 0 -22 -4 -20 -50 25 l-50 49 0 80 0 80 123 122 c67
67 125 123 130 123 4 1 7 -7 7 -16z m1080 -7 c8 -11 11 -69 11 -192 l0 -178
-144 -145 c-80 -80 -150 -156 -156 -168 -7 -14 -11 -97 -11 -228 l0 -206 45
-48 45 -48 0 -84 0 -84 -85 -85 -85 -85 0 415 0 415 146 146 147 147 -2 196
c-2 236 0 246 44 246 18 0 38 -7 45 -14z m-2648 -123 c24 -22 23 -69 -2 -85
-12 -8 -20 -24 -20 -39 0 -16 -12 -36 -35 -56 l-35 -31 0 -108 c0 -108 0 -108
32 -141 30 -31 36 -33 99 -33 l66 0 82 -85 81 -85 88 0 87 0 107 -107 108
-108 0 -592 0 -593 215 -213 215 -214 0 -274 0 -274 -92 -92 -93 -91 -62 -5
c-35 -3 -63 -2 -63 3 0 4 45 51 100 105 l100 99 0 265 0 266 -205 205 -205
205 0 569 0 570 -37 38 c-41 42 -67 48 -83 18 -7 -14 -21 -20 -44 -20 -38 0
-58 19 -58 55 0 14 5 32 12 40 18 22 67 19 82 -5 8 -13 24 -20 43 -20 23 0 42
-11 73 -43 l42 -43 0 -574 0 -575 205 -205 205 -205 0 -275 0 -275 -82 -82
c-45 -45 -79 -85 -76 -88 13 -14 59 19 131 93 l77 80 0 258 0 259 -215 216
-215 215 0 589 0 590 -102 102 -103 103 -85 0 -85 0 -85 85 -85 85 -57 0 c-52
0 -62 3 -98 36 l-40 36 0 132 0 132 30 29 c37 35 37 47 4 80 -18 18 -23 31
-19 48 14 46 63 61 97 30z m4042 -94 c-13 -15 -19 -17 -26 -7 -14 23 -9 51 15
76 l22 24 3 -37 c2 -25 -2 -43 -14 -56z m-1848 -8 c-58 -58 -60 -38 -3 27 27
31 43 43 45 34 2 -8 -17 -35 -42 -61z m-1550 -16 c13 -19 22 -23 41 -19 21 6
47 -16 209 -177 l184 -183 0 -366 0 -365 110 -110 110 -110 0 -306 0 -306 -25
-23 c-18 -17 -23 -30 -19 -47 4 -14 0 -33 -10 -48 -13 -20 -25 -25 -56 -25
-44 0 -70 26 -70 71 0 43 55 78 92 58 18 -10 24 -8 39 12 17 22 19 49 19 314
l0 290 -110 110 -110 110 0 366 0 365 -165 165 c-93 91 -177 167 -192 171 -20
6 -30 2 -45 -17 -34 -43 -98 -21 -98 33 0 58 66 83 96 37z m-1296 -99 c6 -8
10 -29 8 -45 -2 -21 4 -36 20 -51 21 -20 23 -29 21 -128 l-1 -106 55 -53 c49
-47 59 -53 90 -49 31 4 40 -2 128 -90 l94 -94 60 0 c58 0 63 2 100 40 37 38
42 40 102 40 48 0 63 3 63 14 0 20 39 46 67 46 53 0 84 -81 46 -122 -29 -32
-113 -16 -113 23 0 5 -26 9 -58 9 -56 0 -60 -2 -91 -40 l-32 -40 -78 0 -78 0
-94 90 c-80 76 -99 90 -127 90 -27 0 -46 12 -95 58 -34 31 -65 62 -69 67 -4 6
-8 57 -8 116 0 112 -6 129 -48 129 -41 0 -62 18 -62 53 0 18 5 38 12 45 17 17
73 15 88 -2z m790 -66 c18 -18 24 -37 21 -65 0 -6 44 -55 99 -110 l100 -100
223 -3 222 -4 28 -26 27 -26 0 -145 0 -145 -75 -77 -75 -77 0 -473 0 -474 220
-220 220 -220 0 -385 0 -384 -52 -53 c-45 -45 -52 -58 -50 -86 6 -64 -79 -97
-120 -48 -45 56 6 134 71 109 21 -8 31 -3 73 39 l48 47 0 373 0 372 -216 213
-215 213 0 500 1 500 70 70 70 70 0 131 c0 130 0 130 -28 157 l-28 27 -220 0
-220 0 -93 94 c-90 93 -92 94 -132 89 -49 -7 -79 16 -79 61 0 36 7 48 35 64
30 17 53 14 75 -8z m4304 -61 c32 -26 35 -70 5 -100 -17 -17 -30 -20 -59 -16
-32 4 -43 1 -61 -19 -21 -23 -29 -24 -133 -24 l-111 0 -77 -77 -78 -78 0 -55
c0 -44 4 -58 20 -68 37 -23 20 -83 -27 -97 -17 -4 -29 1 -48 19 -32 32 -32 51
1 81 22 20 25 31 23 80 l-2 56 84 85 84 84 114 0 c103 0 117 2 137 21 17 16
22 29 17 50 -4 21 1 34 20 53 32 31 56 33 91 5z m-5206 -16 c6 -9 12 -24 12
-34 0 -9 11 -24 25 -33 23 -15 25 -22 25 -103 0 -87 0 -87 37 -125 35 -36 40
-38 103 -38 l66 0 74 -75 c63 -63 80 -75 108 -75 46 0 86 -41 78 -78 -14 -55
-69 -78 -115 -46 -20 14 -23 23 -18 59 4 42 3 45 -67 114 l-71 71 -71 0 -70 0
-48 49 -47 48 2 81 c2 90 -9 119 -41 102 -27 -14 -51 -12 -72 7 -41 37 -3 111
50 98 15 -3 33 -13 40 -22z m2085 -91 c67 -68 87 -94 87 -115 0 -48 25 -90 94
-156 l66 -64 0 -163 0 -164 55 -60 55 -60 0 -191 0 -191 -72 -75 -73 -75 -3
-201 -3 -202 -32 -33 -32 -33 -5 395 -5 396 -117 118 -118 117 0 423 c0 232 3
422 8 422 4 0 47 -39 95 -88z m2987 40 c0 -14 -39 -46 -47 -39 -3 4 2 16 12
27 19 21 35 26 35 12z m-1521 -576 c-9 -8 -10 -5 -5 14 3 14 7 144 8 290 l3
265 2 -279 c3 -202 0 -283 -8 -290z m-3244 418 c17 -7 69 -14 116 -16 l87 -3
50 -47 51 -48 121 0 c66 0 120 -3 120 -7 0 -3 -7 -15 -17 -25 -12 -13 -30 -18
-69 -18 -46 0 -57 -4 -90 -35 -75 -71 -124 -62 -222 40 -89 91 -108 105 -147
105 -23 0 -42 11 -74 44 l-43 44 44 -10 c23 -6 57 -16 73 -24z m2922 -8 c-13
-14 -28 -26 -33 -26 -4 0 5 13 21 30 16 16 30 28 32 26 2 -2 -7 -16 -20 -30z
m2435 -13 c22 -20 24 -66 3 -83 -9 -7 -31 -13 -49 -12 -23 1 -40 -6 -56 -23
-22 -24 -29 -25 -139 -25 l-115 0 -68 -67 -68 -67 0 -61 0 -60 -95 -95 -95
-95 0 -154 0 -155 -46 -42 -45 -42 4 -79 5 -78 -96 -97 -96 -98 -53 0 c-42 0
-54 -4 -63 -20 -12 -23 -68 -28 -88 -8 -17 17 -15 64 4 82 22 23 71 20 84 -4
8 -15 21 -20 53 -20 39 0 47 5 129 87 l88 88 0 80 0 81 45 44 45 44 0 156 0
155 90 90 90 90 0 58 0 59 77 79 76 79 114 0 c101 0 117 2 143 21 21 16 28 30
28 52 -2 51 55 75 94 40z m-1262 -124 l0 -112 -102 -104 -103 -104 -3 -77 -4
-77 -66 -67 c-37 -38 -70 -68 -74 -68 -5 0 -8 81 -8 179 0 175 1 180 22 195
12 9 33 16 45 16 62 0 88 99 37 139 -15 12 -34 21 -42 21 -11 0 0 16 28 45 42
43 47 45 103 45 63 0 99 14 136 54 14 14 26 26 28 26 2 0 3 -50 3 -111z m-272
-95 c45 -31 13 -114 -40 -101 -15 4 -30 -1 -45 -15 l-23 -21 0 -546 0 -546
-220 -220 -220 -220 0 -240 0 -240 90 -90 90 -90 83 83 82 82 65 0 66 0 69 70
69 70 176 0 175 0 80 80 80 80 60 0 c49 0 62 4 73 20 18 29 67 27 88 -5 19
-29 11 -60 -20 -81 -27 -17 -69 -6 -79 20 -5 12 -20 16 -55 16 -49 0 -51 -1
-128 -80 l-78 -80 -182 0 -182 0 -65 -70 -65 -70 -64 0 -63 0 -85 -85 c-47
-47 -89 -85 -95 -85 -6 0 -56 44 -111 97 l-99 98 0 257 0 258 218 217 217 218
0 546 0 546 25 23 c17 16 25 34 25 56 0 32 28 64 55 64 6 0 21 -7 33 -16z
m-118 -59 c0 -8 -4 -15 -10 -15 -5 0 -7 7 -4 15 4 8 8 15 10 15 2 0 4 -7 4
-15z m-268 -112 l58 -57 0 -95 c0 -85 -2 -93 -14 -75 -8 11 -17 37 -21 57 -9
44 -45 77 -87 77 -25 0 -27 2 -18 19 5 11 10 45 10 75 0 31 3 56 7 56 4 0 33
-26 65 -57z m-14 -136 c6 -5 12 -25 12 -43 0 -20 8 -42 19 -53 18 -18 19 -36
20 -244 l0 -224 -29 -28 c-21 -20 -28 -35 -24 -47 17 -54 -68 -93 -100 -46
-32 45 -9 88 46 88 17 0 40 7 50 17 16 15 18 36 18 238 0 158 -3 224 -12 233
-7 7 -26 12 -44 12 -40 0 -56 19 -52 62 5 50 53 68 96 35z m-104 -95 c9 -9 33
-21 54 -27 l37 -11 3 -203 c3 -221 0 -231 -50 -231 -60 0 -102 -84 -65 -133
19 -26 69 -37 104 -22 31 13 43 32 43 65 0 11 11 36 25 56 l25 37 0 -134 0
-134 -155 -155 -155 -155 0 155 0 154 43 44 42 43 3 357 c2 348 7 428 22 349
4 -21 15 -46 24 -55z m-224 -648 l-30 -35 0 -145 0 -146 -69 -72 c-37 -39 -71
-78 -74 -86 -3 -8 -6 82 -6 200 l-1 215 45 49 c39 42 45 54 45 93 0 30 7 53
20 70 12 15 20 41 20 63 0 24 -7 43 -20 55 -16 15 -20 31 -20 82 l0 64 58 61
57 60 3 -247 2 -247 -30 -34z m1448 29 l-133 -133 -50 1 -50 1 51 10 c46 8 59
17 150 109 l99 99 3 83 c3 72 7 85 30 110 l27 28 3 -87 3 -88 -133 -133z
m-3258 227 c5 0 14 -9 20 -20 10 -18 8 -20 -25 -20 l-35 0 0 48 1 47 15 -27
c8 -16 19 -28 24 -28z m120 -142 c0 -11 -13 -36 -30 -55 -35 -39 -38 -37 -10
9 11 18 20 43 20 56 0 13 4 20 10 17 6 -3 10 -15 10 -27z m-141 -165 c0 -40
-4 -75 -9 -78 -6 -4 -10 30 -10 87 0 60 4 88 9 79 5 -8 10 -48 10 -88z m501
-310 l0 -127 -55 54 c-52 51 -60 70 -30 70 22 0 55 50 55 85 0 32 6 45 22 45
4 0 8 -57 8 -127z m2881 -32 c10 -16 21 -17 81 -13 l69 5 45 -44 c38 -37 44
-49 44 -84 0 -39 6 -47 83 -124 l83 -82 114 -4 c63 -1 127 -3 141 -4 31 -1 55
-19 64 -48 9 -32 -36 -77 -68 -68 -33 10 -49 36 -43 68 l6 29 -111 -8 -111 -7
-94 94 c-91 91 -94 95 -94 139 0 38 -5 51 -27 72 -23 21 -40 26 -100 30 -40 3
-73 2 -73 -3 0 -15 -32 -39 -52 -39 -46 0 -77 67 -46 98 19 19 76 15 89 -7z
m-3242 -755 c-9 -8 -10 -6 -5 7 3 10 7 125 8 255 l3 237 2 -244 c3 -177 0
-248 -8 -255z m493 434 c55 -16 88 -60 88 -121 0 -53 -1 -55 -64 -64 -22 -3
-42 -8 -45 -11 -3 -3 -7 -113 -9 -245 -2 -142 -7 -239 -13 -239 -5 0 -9 134
-9 345 0 190 3 345 8 345 4 0 24 -5 44 -10z m28 -502 l0 -301 -70 -72 -69 -72
2 -831 c1 -545 5 -833 12 -834 7 -2 11 282 13 832 l2 835 66 66 65 66 2 309
c2 257 4 309 16 309 12 0 14 -51 12 -315 l-2 -315 -64 -65 -65 -66 0 -842 0
-842 -45 0 -45 0 0 852 0 853 70 66 71 66 -1 296 c-1 163 1 301 5 307 20 33
25 -26 25 -302z m2528 108 c54 -56 67 -64 106 -68 40 -5 47 -2 61 18 30 46 95
21 95 -35 0 -57 -73 -81 -99 -32 -8 15 -19 17 -58 14 l-48 -5 -70 71 -69 71
-207 0 -207 0 -63 -65 -63 -65 -85 0 -86 0 -87 -87 -88 -88 0 -135 c0 -130 1
-136 22 -145 33 -15 46 -60 27 -93 -19 -34 -80 -43 -110 -16 -28 25 -25 78 6
102 25 20 25 22 25 160 l0 141 98 95 97 95 80 1 81 0 64 65 64 65 227 0 226 0
61 -64z m-2898 -166 c0 -43 -5 -55 -35 -89 -29 -31 -43 -39 -82 -44 -117 -13
-127 -165 -12 -183 48 -8 99 33 99 80 0 24 10 41 40 71 l40 39 0 -219 0 -220
-185 185 c-102 102 -188 193 -191 203 -3 10 -3 28 0 40 5 20 11 22 56 19 70
-5 95 8 180 93 41 41 78 75 82 75 5 0 8 -22 8 -50z m1620 -679 c16 -31 12 -76
-10 -96 -20 -18 -20 -17 -20 48 0 67 10 84 30 48z m-1180 -1240 c0 -18 -18
-41 -32 -41 -10 0 -11 64 -1 73 9 10 33 -13 33 -32z"/>
<path d="M4714 4816 c-12 -31 0 -51 31 -51 27 0 30 3 30 30 0 25 -4 30 -28 33
-17 2 -29 -2 -33 -12z m41 -16 c3 -5 1 -10 -4 -10 -6 0 -11 5 -11 10 0 6 2 10
4 10 3 0 8 -4 11 -10z"/>
<path d="M4771 6832 c-14 -27 8 -55 40 -50 19 2 24 9 24 33 0 25 -4 31 -27 33
-18 2 -30 -3 -37 -16z m39 -12 c0 -5 -5 -10 -11 -10 -5 0 -7 5 -4 10 3 6 8 10
11 10 2 0 4 -4 4 -10z"/>
<path d="M5772 6748 c-18 -18 -14 -46 8 -58 15 -8 24 -6 40 10 16 16 18 25 10
40 -12 22 -40 26 -58 8z m38 -22 c0 -3 -4 -8 -10 -11 -5 -3 -10 -1 -10 4 0 6
5 11 10 11 6 0 10 -2 10 -4z"/>
<path d="M4560 5651 c-13 -25 -4 -48 21 -56 38 -12 65 35 37 63 -18 18 -46 14
-58 -7z m40 -21 c0 -5 -2 -10 -4 -10 -3 0 -8 5 -11 10 -3 6 -1 10 4 10 6 0 11
-4 11 -10z"/>
<path d="M3152 5638 c-32 -32 8 -80 48 -58 34 18 19 70 -20 70 -9 0 -21 -5
-28 -12z m38 -28 c0 -5 -4 -10 -10 -10 -5 0 -10 5 -10 10 0 6 5 10 10 10 6 0
10 -4 10 -10z"/>
<path d="M2706 4855 c-19 -20 -20 -26 -3 -49 26 -36 84 4 61 42 -15 23 -38 26
-58 7z m34 -25 c0 -5 -4 -10 -10 -10 -5 0 -10 5 -10 10 0 6 5 10 10 10 6 0 10
-4 10 -10z"/>
<path d="M2770 5531 c-13 -25 -4 -48 21 -56 38 -12 65 35 37 63 -18 18 -46 14
-58 -7z m40 -21 c0 -5 -2 -10 -4 -10 -3 0 -8 5 -11 10 -3 6 -1 10 4 10 6 0 11
-4 11 -10z"/>
<path d="M4556 1987 c-36 -26 4 -84 42 -61 23 15 26 38 7 58 -20 19 -26 20
-49 3z"/>
<path d="M4384 3176 c-11 -28 1 -51 27 -54 31 -4 53 20 44 48 -8 24 -62 29
-71 6z"/>
<path d="M3356 4555 c-19 -20 -20 -26 -3 -49 26 -36 84 4 61 42 -15 23 -38 26
-58 7z m34 -25 c0 -5 -5 -10 -11 -10 -5 0 -7 5 -4 10 3 6 8 10 11 10 2 0 4 -4
4 -10z"/>
<path d="M3306 4988 c-31 -17 -13 -68 25 -68 23 0 42 26 34 48 -7 23 -36 33
-59 20z m29 -28 c3 -5 1 -10 -4 -10 -6 0 -11 5 -11 10 0 6 2 10 4 10 3 0 8 -4
11 -10z"/>
<path d="M4180 1955 c-19 -23 -3 -55 30 -55 30 0 44 21 35 51 -8 23 -47 25
-65 4z"/>
<path d="M7606 4927 c-36 -26 4 -84 42 -61 23 15 26 38 7 58 -20 19 -26 20
-49 3z m34 -27 c0 -5 -4 -10 -10 -10 -5 0 -10 5 -10 10 0 6 5 10 10 10 6 0 10
-4 10 -10z"/>
<path d="M2897 4414 c-13 -13 -7 -51 9 -65 23 -19 49 1 49 37 0 24 -5 30 -25
32 -14 2 -29 0 -33 -4z m43 -28 c0 -3 -4 -8 -10 -11 -5 -3 -10 -1 -10 4 0 6 5
11 10 11 6 0 10 -2 10 -4z"/>
<path d="M6225 1747 c-13 -10 -16 -21 -11 -41 5 -22 12 -27 33 -24 38 4 52 32
29 57 -22 25 -26 25 -51 8z"/>
<path d="M5082 6618 c-28 -28 -1 -75 38 -63 14 4 20 15 20 35 0 36 -33 53 -58
28z m38 -28 c0 -5 -4 -10 -10 -10 -5 0 -10 5 -10 10 0 6 5 10 10 10 6 0 10 -4
10 -10z"/>
<path d="M5636 6027 c-36 -26 4 -84 42 -61 23 15 26 38 7 58 -20 19 -26 20
-49 3z m34 -27 c0 -5 -4 -10 -10 -10 -5 0 -10 5 -10 10 0 6 5 10 10 10 6 0 10
-4 10 -10z"/>
<path d="M5810 5861 c-13 -25 -4 -48 21 -56 38 -12 65 35 37 63 -18 18 -46 14
-58 -7z m40 -21 c0 -5 -4 -10 -10 -10 -5 0 -10 5 -10 10 0 6 5 10 10 10 6 0
10 -4 10 -10z"/>
<path d="M5802 5548 c-32 -32 18 -87 53 -58 28 23 12 70 -25 70 -9 0 -21 -5
-28 -12z m38 -28 c0 -5 -4 -10 -10 -10 -5 0 -10 5 -10 10 0 6 5 10 10 10 6 0
10 -4 10 -10z"/>
<path d="M5552 5337 c-16 -17 -22 -36 -22 -72 0 -49 -1 -50 -95 -145 l-95 -96
2 -249 c2 -202 5 -245 15 -225 9 20 12 -64 12 -399 l1 -424 -50 -53 -50 -53 0
-392 0 -391 80 -82 80 -82 2 -1191 c3 -1186 3 -1192 24 -1219 25 -34 72 -70
80 -62 3 4 -13 26 -35 51 l-41 44 0 1194 0 1194 -85 85 -85 85 0 379 0 379 50
50 50 50 0 531 0 531 125 125 125 125 0 140 0 141 -28 27 c-34 33 -33 33 -60
4z m48 -32 c14 -17 25 -188 15 -241 -4 -22 -36 -61 -115 -140 -61 -60 -117
-122 -125 -139 -14 -28 -15 -22 -15 96 l0 126 93 95 c67 67 96 104 100 128 4
17 4 36 1 41 -6 10 13 49 25 49 5 0 14 -7 21 -15z"/>
<path d="M4940 5055 c-26 -32 13 -81 48 -59 34 22 22 74 -18 74 -10 0 -23 -7
-30 -15z m40 -25 c0 -5 -4 -10 -10 -10 -5 0 -10 5 -10 10 0 6 5 10 10 10 6 0
10 -4 10 -10z"/>
<path d="M6927 5044 c-4 -4 -7 -18 -7 -31 0 -21 4 -24 28 -21 21 2 27 8 27 28
0 18 -6 26 -20 28 -12 2 -24 0 -28 -4z"/>
<path d="M4907 4603 l3 -387 55 -56 c30 -31 55 -61 55 -68 0 -6 31 21 70 61
l69 72 1 100 0 101 -43 42 c-49 48 -58 51 -72 20 -6 -13 -22 -27 -37 -32 -56
-20 -107 49 -77 103 23 41 101 41 114 1 3 -11 14 -20 24 -20 9 0 40 -24 69
-53 l52 -53 0 -108 0 -108 -75 -77 -75 -77 0 -603 0 -603 80 -83 80 -82 0
-979 c0 -538 0 -983 0 -989 0 -5 7 -1 15 9 13 17 15 153 15 991 l0 970 -80 80
-80 80 0 610 0 611 70 69 70 69 0 116 0 115 -80 80 -80 80 0 166 c0 147 -2
168 -18 182 -13 12 -28 15 -53 11 -25 -4 -39 -1 -48 10 -7 9 -16 16 -20 16 -3
0 -5 -174 -4 -387z m112 318 c6 -11 10 -80 8 -162 l-2 -144 -47 -3 -48 -2 0
165 0 165 40 0 c28 0 42 -5 49 -19z m94 -483 c17 -22 19 -40 18 -120 l-2 -93
-42 -42 c-22 -24 -46 -43 -51 -43 -6 0 -32 21 -58 47 l-48 47 0 101 0 101 50
0 c35 -1 55 4 67 17 23 23 41 19 66 -15z"/>
<path d="M5112 4888 c-18 -18 -14 -46 7 -58 25 -13 48 -4 56 21 12 38 -35 65
-63 37z"/>
<path d="M5080 4718 l0 -103 82 -82 82 -83 1 -115 0 -114 -72 -73 -73 -73 0
-606 0 -605 81 -80 80 -81 0 -983 -1 -984 -42 -43 c-56 -57 -40 -69 17 -13
l45 44 0 -362 c0 -315 2 -362 15 -362 13 0 15 156 15 1343 l0 1342 -85 85 -85
85 0 618 0 618 70 74 70 74 0 102 0 103 -81 82 -80 83 2 91 c2 83 0 93 -20
106 l-21 15 0 -103z"/>
<path d="M5792 4798 c-18 -18 -14 -46 7 -58 25 -13 48 -4 56 21 12 38 -35 65
-63 37z m38 -28 c0 -5 -4 -10 -10 -10 -5 0 -10 5 -10 10 0 6 5 10 10 10 6 0
10 -4 10 -10z"/>
<path d="M4957 4553 c-14 -13 -6 -53 12 -63 15 -7 24 -5 41 8 19 16 21 22 11
40 -11 21 -50 30 -64 15z m43 -27 c0 -3 -4 -8 -10 -11 -5 -3 -10 -1 -10 4 0 6
5 11 10 11 6 0 10 -2 10 -4z"/>
<path d="M2208 4340 c-9 -6 -22 -26 -28 -44 -19 -58 15 -106 74 -106 13 0 31
-9 41 -20 18 -20 17 -20 -9 -20 -40 0 -66 -17 -82 -56 -12 -29 -12 -39 0 -68
17 -40 42 -56 89 -56 24 0 42 8 58 25 20 20 34 25 76 25 78 0 86 -6 52 -40
-37 -37 -39 -81 -4 -115 13 -14 33 -25 44 -25 18 0 19 -9 23 -140 l3 -140 181
-180 180 -180 82 0 c77 0 83 -2 117 -32 l36 -31 -28 -12 c-15 -7 -34 -19 -42
-28 -10 -13 -30 -17 -75 -17 l-61 0 -112 113 -113 112 -150 5 -150 5 -31 32
c-28 27 -33 40 -38 100 -5 49 -13 77 -29 97 -12 16 -22 40 -22 53 0 34 -42 73
-80 73 -43 0 -80 -39 -80 -85 0 -43 26 -71 74 -80 47 -9 52 -18 59 -95 5 -63
7 -66 65 -122 l60 -58 139 0 c133 0 141 -1 161 -23 12 -13 22 -25 22 -28 0 -2
-48 -3 -108 -1 -59 2 -120 -1 -135 -7 -26 -10 -27 -14 -27 -76 0 -60 -3 -68
-35 -104 -34 -37 -37 -39 -114 -43 -44 -3 -86 -9 -93 -15 -7 -6 -29 -13 -49
-17 -47 -8 -71 -36 -71 -81 0 -41 22 -70 59 -80 53 -13 94 23 105 90 3 17 13
21 81 25 l77 5 57 57 c52 53 57 60 61 112 l4 56 76 0 76 0 121 -120 122 -120
192 0 192 0 74 -70 74 -70 164 0 c204 0 197 5 197 -136 0 -54 3 -109 6 -121
13 -50 21 -17 23 98 l2 122 -33 34 -33 34 -164 -2 -164 -1 -66 66 -67 66 -189
0 -190 0 -120 120 -120 120 -102 0 -103 0 0 -63 c0 -62 0 -63 -53 -115 l-53
-52 -75 0 c-84 0 -99 -8 -99 -55 0 -38 -16 -55 -51 -55 -34 0 -59 24 -59 55 0
33 26 55 65 55 20 0 35 6 39 15 4 12 23 15 84 15 l78 0 47 48 c47 47 47 48 47
115 l0 67 123 0 122 0 120 -120 120 -120 195 0 196 0 64 -65 64 -65 166 0 166
0 37 -38 37 -38 0 -98 c0 -62 4 -95 10 -91 6 4 10 54 10 119 l0 112 -38 37
-38 37 -160 0 -159 0 -200 200 -200 200 -90 0 -90 0 -173 173 -172 172 0 153
0 154 -29 -7 c-34 -7 -71 21 -71 55 0 24 34 60 55 60 26 0 67 -48 60 -69 -3
-11 -1 -22 5 -26 6 -4 10 -62 10 -153 l0 -147 168 -168 167 -167 87 0 87 0
199 -200 198 -200 165 0 165 0 42 -43 42 -43 0 -124 0 -124 -32 -33 c-33 -34
-32 -59 1 -29 11 10 25 15 31 11 16 -10 11 -154 -7 -183 l-14 -23 -51 46 -50
45 -101 0 -101 0 -44 42 -43 43 -112 3 -112 3 -47 47 c-35 34 -48 54 -48 75 0
36 -40 77 -76 77 -16 0 -41 13 -65 35 -22 19 -46 35 -55 35 -9 0 -27 9 -41 20
-75 58 -172 -16 -129 -98 24 -47 84 -57 129 -22 l25 20 26 -31 c14 -17 26 -41
26 -55 0 -32 33 -64 66 -64 18 0 46 -18 91 -60 l64 -60 106 0 106 0 48 -45 48
-45 103 0 102 0 52 -51 c66 -65 91 -67 148 -10 l41 41 0 290 0 290 -53 52 -52
53 -158 3 -157 3 -206 205 -205 204 -80 0 -79 0 -153 153 -152 152 0 128 0
127 29 0 c37 0 81 49 81 92 0 39 -48 88 -86 88 -19 0 -44 16 -85 55 l-58 55
-104 0 c-95 0 -105 2 -125 23 -12 13 -22 31 -22 41 0 25 -27 73 -45 80 -24 9
-68 7 -87 -4z m80 -26 c15 -10 22 -25 22 -48 0 -22 9 -40 28 -59 27 -26 33
-27 134 -27 l106 0 57 -59 c51 -54 60 -59 89 -54 27 4 37 0 54 -22 27 -35 28
-55 1 -89 -26 -32 -70 -35 -100 -5 -17 17 -20 30 -16 59 4 35 1 42 -44 86
l-48 48 -105 -3 -104 -2 -37 40 c-30 32 -43 39 -62 35 -54 -14 -87 68 -41 100
12 9 27 16 33 16 6 0 21 -7 33 -16z m40 -200 c12 -8 22 -22 22 -30 0 -11 18
-14 87 -14 l88 0 77 -77 78 -78 0 -130 0 -131 162 -162 162 -162 81 0 80 0
210 -210 210 -210 155 0 154 0 43 -42 43 -42 0 -284 0 -284 -40 -39 c-22 -22
-42 -39 -44 -39 -3 0 -28 25 -57 55 l-52 55 -108 0 -108 0 -42 45 -42 45 -111
0 -112 0 -64 65 c-52 53 -68 63 -87 59 -33 -9 -65 22 -61 58 2 20 -6 37 -32
63 -38 39 -64 44 -80 16 -25 -47 -100 -27 -100 26 0 59 63 83 98 39 14 -18 25
-23 41 -19 16 4 31 -4 61 -36 21 -22 47 -40 57 -39 37 3 50 -3 61 -27 6 -14 9
-31 6 -39 -3 -9 19 -38 58 -75 l63 -61 105 0 106 0 39 -40 39 -40 106 0 106 0
54 -55 54 -55 28 27 28 27 0 265 0 265 -37 38 -37 38 -155 0 -156 0 -207 207
-208 208 -76 -4 -77 -3 -173 173 -174 174 0 134 0 133 -70 69 -70 69 -76 0
c-69 0 -78 -2 -96 -25 -23 -30 -72 -34 -100 -8 -27 24 -24 87 4 107 12 9 32
16 43 16 11 0 31 -7 43 -16z m272 -39 c34 -35 41 -48 32 -57 -9 -9 -22 -2 -57
32 -45 44 -47 45 -123 48 -116 6 -113 22 4 22 l100 0 44 -45z m-345 -451 c11
-11 14 -25 10 -44 -5 -23 -1 -32 24 -50 29 -20 31 -25 31 -89 0 -66 1 -67 44
-110 l45 -44 138 2 138 2 120 -121 120 -120 77 0 c61 0 78 3 78 14 0 19 39 46
65 46 54 0 86 -81 48 -122 -24 -27 -77 -24 -101 7 -18 23 -26 25 -99 25 l-80
0 -113 115 -114 115 -145 0 -145 0 -53 52 -53 52 0 66 c0 59 -3 69 -26 91 -16
15 -35 23 -51 21 -48 -7 -77 43 -53 89 13 24 72 26 95 3z m549 -174 c110 -111
163 -170 151 -170 -10 0 -82 64 -165 148 -135 135 -183 192 -163 192 5 0 84
-76 177 -170z m540 -379 c99 -100 177 -183 175 -186 -3 -2 -92 84 -199 191
-107 108 -186 191 -175 186 11 -6 101 -92 199 -191z m-7 -136 c-1 0 -45 2 -97
6 -52 3 -86 6 -74 7 22 2 57 36 68 66 6 17 12 14 56 -29 27 -27 49 -49 47 -50z
m-273 50 c9 -9 28 -22 43 -30 26 -14 23 -15 -63 -15 -87 0 -91 1 -119 30 l-29
30 76 0 c56 0 81 -4 92 -15z"/>
<path d="M2702 4028 c-25 -25 -6 -68 30 -68 33 0 43 53 14 72 -16 11 -30 10
-44 -4z m38 -22 c0 -3 -4 -8 -10 -11 -5 -3 -10 -1 -10 4 0 6 5 11 10 11 6 0
10 -2 10 -4z"/>
<path d="M2262 4088 c-25 -25 -6 -68 30 -68 9 0 22 9 28 19 13 25 13 27 -6 45
-19 19 -36 20 -52 4z m33 -28 c3 -5 1 -10 -4 -10 -6 0 -11 5 -11 10 0 6 2 10
4 10 3 0 8 -4 11 -10z"/>
<path d="M3116 3061 c-25 -28 -5 -63 32 -59 30 3 42 39 22 64 -17 19 -34 18
-54 -5z"/>
<path d="M3362 4058 c-30 -30 0 -75 43 -64 19 5 25 13 25 35 0 38 -41 56 -68
29z m48 -28 c0 -5 -7 -10 -15 -10 -8 0 -15 5 -15 10 0 6 7 10 15 10 8 0 15 -4
15 -10z"/>
<path d="M5717 3664 c-13 -14 -7 -43 12 -53 23 -13 45 8 39 36 -3 18 -38 30
-51 17z"/>
<path d="M4042 3588 c-25 -25 -6 -68 30 -68 9 0 22 9 28 20 22 40 -26 80 -58
48z m38 -28 c0 -5 -4 -10 -10 -10 -5 0 -10 5 -10 10 0 6 5 10 10 10 6 0 10 -4
10 -10z"/>
<path d="M7206 3244 c-10 -27 -7 -43 13 -54 38 -20 71 13 51 51 -13 23 -55 25
-64 3z m44 -18 c0 -3 -4 -8 -10 -11 -5 -3 -10 -1 -10 4 0 6 5 11 10 11 6 0 10
-2 10 -4z"/>
<path d="M4982 1358 c-25 -25 0 -64 32 -52 21 8 21 50 0 58 -20 8 -18 8 -32
-6z"/>
<path d="M5627 1103 c-13 -12 -7 -51 9 -57 22 -8 22 -8 34 15 17 30 -20 66
-43 42z"/>
<path d="M4793 373 c-18 -7 -16 -48 2 -63 18 -15 51 -5 58 19 9 38 -21 60 -60
44z"/>
<path d="M4977 193 c-4 -3 -7 -19 -7 -34 0 -32 32 -48 55 -29 20 16 19 56 -1
64 -20 8 -39 8 -47 -1z"/>
</g>
</svg>
